<svg width="160" height="160" viewBox="0 0 160 160" fill="none" xmlns="http://www.w3.org/2000/svg">
  <rect width="160" height="160" rx="80" fill="#56303A"/>
  <circle cx="80" cy="80" r="70" fill="url(#paint0_radial)" stroke="#C79B55" stroke-width="3"/>
  <path d="M47 109V48H60V109H47Z" fill="#FFFAF3"/>
  <path d="M76 109V48H117V60H89V76H112V88H89V109H76Z" fill="#FFFAF3"/>
  <path d="M36 101C57 84 78 79 103 83C116 85 126 88 138 94" stroke="#C79B55" stroke-width="8" stroke-linecap="round"/>
  <path d="M33 103C55 91 78 88 103 92C115 94 127 98 139 105" stroke="#E7C884" stroke-width="2.5" stroke-linecap="round"/>
  <path d="M108 37C121 43 131 54 136 68" stroke="#D7AD65" stroke-width="3" stroke-linecap="round"/>
  <path d="M24 84C25 69 31 56 42 45" stroke="#D7AD65" stroke-width="3" stroke-linecap="round"/>
  <defs>
    <radialGradient id="paint0_radial" cx="0" cy="0" r="1" gradientUnits="userSpaceOnUse" gradientTransform="translate(55 35) rotate(56.3) scale(120)">
      <stop stop-color="#8B604B"/>
      <stop offset="0.48" stop-color="#56303A"/>
      <stop offset="1" stop-color="#2A1C19"/>
    </radialGradient>
  </defs>
</svg>
